# xmcd
#
# Track frame offsets:
#	150
#	8649
#	14633
#	25800
#	33709
#	46761
#	58116
#	71705
#	84006
#	93334
#	108003
#	122687
#	130583
#	139160
#
# Disc length: 2112 seconds
#
# Revision: 1
# Processed by: cddbd v1.5.2PL0 Copyright (c) Steve Scherf et al.
# Submitted via: audiograbber 1.83.01
#
DISCID=ac083e0e
DTITLE=Peter Stanley - Cabin On The Hill
DYEAR=1999
DGENRE=Country Folk
TTITLE0=FDR's Back Again
TTITLE1=Woody's Rag
TTITLE2=Times Are Getting Hard
TTITLE3=Willy Moore
TTITLE4=Honest Sam
TTITLE5=Six Nights Drunk
TTITLE6=Wreck Of The Number Nine
TTITLE7=30.06 On The Wall
TTITLE8=Under The Double Eagle
TTITLE9=John Henry
TTITLE10=Columbus Stockade
TTITLE11=Pack Up Your Sorrows
TTITLE12=Copper Kettle
TTITLE13=Gonna Leave Old Texas
EXTD=
EXTT0=
EXTT1=
EXTT2=
EXTT3=
EXTT4=
EXTT5=
EXTT6=
EXTT7=
EXTT8=
EXTT9=
EXTT10=
EXTT11=
EXTT12=
EXTT13=
PLAYORDER=
